<?xml version="1.0" encoding="UTF-8" standalone="no"?>
<svg
   viewBox="0 0 448 512"
   version="1.1"
   id="svg1"
   sodipodi:docname="toggle-all-options-close.svg"
   inkscape:version="1.3.2 (091e20e, 2023-11-25, custom)"
   inkscape:export-filename="toggle-all-options-close.png"
   inkscape:export-xdpi="96"
   inkscape:export-ydpi="96"
   xmlns:inkscape="http://www.inkscape.org/namespaces/inkscape"
   xmlns:sodipodi="http://sodipodi.sourceforge.net/DTD/sodipodi-0.dtd"
   xmlns="http://www.w3.org/2000/svg"
   xmlns:svg="http://www.w3.org/2000/svg">
  <defs
     id="defs1" />
  <sodipodi:namedview
     id="namedview1"
     pagecolor="#ffffff"
     bordercolor="#000000"
     borderopacity="0.25"
     inkscape:showpageshadow="2"
     inkscape:pageopacity="0.0"
     inkscape:pagecheckerboard="0"
     inkscape:deskcolor="#262626"
     inkscape:zoom="0.91894531"
     inkscape:cx="212.19979"
     inkscape:cy="224.17003"
     inkscape:window-width="1346"
     inkscape:window-height="1160"
     inkscape:window-x="2742"
     inkscape:window-y="11"
     inkscape:window-maximized="0"
     inkscape:current-layer="svg1"
     inkscape:export-bgcolor="#697ba4ff" />
  <!--!Font Awesome Free 6.5.2 by @fontawesome - https://fontawesome.com License - https://fontawesome.com/license/free Copyright 2024 Fonticons, Inc.-->
  <rect
     style="fill:#697ba4;fill-opacity:1"
     id="rect1"
     width="447.8353"
     height="511.7019"
     x="0"
     y="-4.0836426e-08" />
  <path
     d="m 29.381509,96 c 0,-17.7 12.493776,-32 27.958099,-32 H 392.8368 c 15.46433,0 27.9581,14.3 27.9581,32 0,17.7 -12.49377,32 -27.9581,32 H 57.339608 C 41.875285,128 29.381509,113.7 29.381509,96 Z m 0,160 c 0,-17.7 12.493776,-32 27.958099,-32 H 392.8368 c 15.46433,0 27.9581,14.3 27.9581,32 0,17.7 -12.49377,32 -27.9581,32 H 57.339608 C 41.875285,288 29.381509,273.7 29.381509,256 Z M 420.7949,416 c 0,17.7 -12.49377,32 -27.9581,32 H 57.339608 c -15.464323,0 -27.958099,-14.3 -27.958099,-32 0,-17.7 12.493776,-32 27.958099,-32 H 392.8368 c 15.46433,0 27.9581,14.3 27.9581,32 z"
     id="path1"
     style="fill:#ffffff;fill-opacity:1;stroke-width:0.934714" />
</svg>
